<mxfile host="app.diagrams.net" modified="2023-10-17T05:33:02.595Z" agent="Mozilla/5.0 (Windows NT 10.0; Win64; x64) AppleWebKit/537.36 (KHTML, like Gecko) Chrome/118.0.0.0 Safari/537.36 Edg/118.0.2088.46" version="22.0.4" etag="yVx375y_W4LWaEnW3qKC" type="github">
  <diagram name="第 1 页" id="m-h5cVVWwUyxYJIIQhJh">
    <mxGraphModel>
      <root>
        <mxCell id="0" />
        <mxCell id="1" parent="0" />
      </root>
    </mxGraphModel>
  </diagram>
</mxfile>
